<svg width="260" height="80" viewBox="0 0 260 80" fill="none" xmlns="http://www.w3.org/2000/svg">
  <!-- Background badge -->
  <rect x="8" y="16" width="48" height="48" rx="4" fill="#2563EB" opacity="0.1"/>

  <!-- House icon -->
  <path d="M32 24L18 35V52H28V42H36V52H46V35L32 24Z" fill="#2563EB"/>
  <path d="M32 22L50 37V54C50 55.1 49.1 56 48 56H16C14.9 56 14 55.1 14 54V37L32 22Z" stroke="#2563EB" stroke-width="2" fill="none"/>

  <!-- Door detail -->
  <rect x="28" y="44" width="8" height="12" rx="1" fill="#1E40AF"/>

  <!-- Window details -->
  <rect x="20" y="38" width="6" height="6" rx="1" fill="#1E40AF"/>
  <rect x="38" y="38" width="6" height="6" rx="1" fill="#1E40AF"/>

  <!-- Text: FUTURE SOCIAL -->
  <text x="68" y="38" font-family="Arial, Helvetica, sans-serif" font-size="18" font-weight="700" fill="#1F2937" letter-spacing="0.5">
    FUTURE SOCIAL
  </text>

  <!-- Text: HOUSING -->
  <text x="68" y="56" font-family="Arial, Helvetica, sans-serif" font-size="18" font-weight="700" fill="#2563EB" letter-spacing="0.5">
    HOUSING
  </text>

  <!-- Tagline -->
  <text x="68" y="68" font-family="Arial, Helvetica, sans-serif" font-size="8" font-weight="400" fill="#6B7280" letter-spacing="0.3">
    Regulated Accommodation Framework
  </text>
</svg>
